<svg width="19" height="19" viewBox="0 0 19 19" fill="none" xmlns="http://www.w3.org/2000/svg">
<g filter="url(#filter0_d)">
<path d="M9.68 1.6C10.44 1.6 11.1 1.728 11.66 1.984C12.22 2.232 12.652 2.592 12.956 3.064C13.26 3.528 13.412 4.076 13.412 4.708C13.412 5.34 13.26 5.888 12.956 6.352C12.652 6.816 12.22 7.176 11.66 7.432C11.1 7.68 10.44 7.804 9.68 7.804H8.216V10H5.84V1.6H9.68ZM9.536 5.932C10.024 5.932 10.392 5.828 10.64 5.62C10.888 5.404 11.012 5.1 11.012 4.708C11.012 4.316 10.888 4.012 10.64 3.796C10.392 3.58 10.024 3.472 9.536 3.472H8.216V5.932H9.536Z" fill="black"/>
<path d="M11.66 1.984L11.2442 2.89354L11.2551 2.89835L11.66 1.984ZM12.956 3.064L12.1153 3.60549L12.1195 3.61203L12.956 3.064ZM12.956 6.352L13.7925 6.90003L13.7925 6.90003L12.956 6.352ZM11.66 7.432L12.065 8.34641L12.0758 8.34147L11.66 7.432ZM8.216 7.804V6.804H7.216V7.804H8.216ZM8.216 10V11H9.216V10H8.216ZM5.84 10H4.84V11H5.84V10ZM5.84 1.6V0.599999H4.84V1.6H5.84ZM10.64 5.62L11.2826 6.38619L11.2898 6.3802L11.2968 6.37408L10.64 5.62ZM8.216 3.472V2.472H7.216V3.472H8.216ZM8.216 5.932H7.216V6.932H8.216V5.932ZM9.68 2.6C10.3293 2.6 10.8416 2.7094 11.2442 2.89347L12.0758 1.07453C11.3584 0.746602 10.5507 0.599999 9.68 0.599999V2.6ZM11.2551 2.89835C11.6534 3.07477 11.9266 3.31255 12.1153 3.60548L13.7967 2.52252C13.3774 1.87145 12.7866 1.38923 12.0649 1.06965L11.2551 2.89835ZM12.1195 3.61203C12.3025 3.89129 12.412 4.24278 12.412 4.708H14.412C14.412 3.90921 14.2175 3.16471 13.7925 2.51597L12.1195 3.61203ZM12.412 4.708C12.412 5.17321 12.3025 5.52471 12.1195 5.80397L13.7925 6.90003C14.2175 6.25129 14.412 5.50678 14.412 4.708H12.412ZM12.1195 5.80397C11.93 6.09322 11.6522 6.33602 11.2442 6.52253L12.0758 8.34147C12.7878 8.01598 13.374 7.53878 13.7925 6.90003L12.1195 5.80397ZM11.2551 6.51765C10.8494 6.6973 10.3332 6.804 9.68 6.804V8.804C10.5468 8.804 11.3506 8.6627 12.0649 8.34635L11.2551 6.51765ZM9.68 6.804H8.216V8.804H9.68V6.804ZM7.216 7.804V10H9.216V7.804H7.216ZM8.216 9H5.84V11H8.216V9ZM6.84 10V1.6H4.84V10H6.84ZM5.84 2.6H9.68V0.599999H5.84V2.6ZM9.536 6.932C10.1443 6.932 10.7828 6.80543 11.2826 6.38619L9.99739 4.85381C9.99739 4.85381 9.99628 4.85475 9.99364 4.85647C9.99098 4.85821 9.98647 4.86095 9.97966 4.8644C9.96598 4.87133 9.94251 4.88139 9.90604 4.89169C9.83098 4.9129 9.71205 4.932 9.536 4.932V6.932ZM11.2968 6.37408C11.8049 5.93153 12.012 5.32827 12.012 4.708H10.012C10.012 4.79909 9.99765 4.84107 9.99307 4.85232C9.99179 4.85545 9.99083 4.8573 9.99034 4.85819C9.98986 4.85907 9.98957 4.85949 9.98944 4.85967C9.98931 4.85985 9.98898 4.8603 9.98823 4.86112C9.98747 4.86195 9.98592 4.86357 9.98322 4.86592L11.2968 6.37408ZM12.012 4.708C12.012 4.08773 11.8049 3.48447 11.2968 3.04192L9.98322 4.55008C9.98592 4.55243 9.98747 4.55405 9.98823 4.55488C9.98898 4.5557 9.98931 4.55615 9.98944 4.55633C9.98957 4.55651 9.98986 4.55692 9.99034 4.55781C9.99083 4.5587 9.99179 4.56055 9.99307 4.56368C9.99765 4.57493 10.012 4.61691 10.012 4.708H12.012ZM11.2968 3.04192C10.7962 2.60594 10.1518 2.472 9.536 2.472V4.472C9.70928 4.472 9.82479 4.49151 9.8964 4.51253C9.93115 4.52273 9.95327 4.5326 9.96599 4.53929C9.97835 4.54579 9.98298 4.54987 9.98322 4.55008L11.2968 3.04192ZM9.536 2.472H8.216V4.472H9.536V2.472ZM7.216 3.472V5.932H9.216V3.472H7.216ZM8.216 6.932H9.536V4.932H8.216V6.932Z" fill="white"/>
</g>
<defs>
<filter id="filter0_d" x="0.839996" y="0.600006" width="17.572" height="18.4" filterUnits="userSpaceOnUse" color-interpolation-filters="sRGB">
<feFlood flood-opacity="0" result="BackgroundImageFix"/>
<feColorMatrix in="SourceAlpha" type="matrix" values="0 0 0 0 0 0 0 0 0 0 0 0 0 0 0 0 0 0 127 0"/>
<feOffset dy="4"/>
<feGaussianBlur stdDeviation="2"/>
<feColorMatrix type="matrix" values="0 0 0 0 0 0 0 0 0 0 0 0 0 0 0 0 0 0 0.25 0"/>
<feBlend mode="normal" in2="BackgroundImageFix" result="effect1_dropShadow"/>
<feBlend mode="normal" in="SourceGraphic" in2="effect1_dropShadow" result="shape"/>
</filter>
</defs>
</svg>
